<?xml version="1.0" standalone="no"?>
<!DOCTYPE svg PUBLIC "-//W3C//DTD SVG 20010904//EN"
 "http://www.w3.org/TR/2001/REC-SVG-20010904/DTD/svg10.dtd">
<svg version="1.0" xmlns="http://www.w3.org/2000/svg"
 width="512.000000pt" height="512.000000pt" viewBox="0 0 512.000000 512.000000"
 preserveAspectRatio="xMidYMid meet">
<metadata>
Created by potrace 1.11, written by Peter Selinger 2001-2013
</metadata>
<g transform="translate(0.000000,512.000000) scale(0.100000,-0.100000)"
fill="#000000" stroke="none">
<path d="M804 4580 c-64 -9 -146 -53 -186 -99 -17 -19 -43 -60 -57 -91 l-26
-55 0 -1780 0 -1780 22 -47 c30 -66 96 -133 162 -165 l56 -28 1785 0 1785 0
56 28 c66 32 132 99 162 165 l22 47 3 1754 c3 1933 6 1823 -59 1918 -17 25
-51 59 -76 77 -94 66 56 61 -1858 62 -957 1 -1763 -2 -1791 -6z m2774 -1111
c40 -10 105 -35 145 -56 91 -47 210 -163 254 -248 37 -70 77 -205 87 -287 l6
-58 -189 0 -190 0 -7 48 c-23 161 -89 256 -198 287 -88 26 -224 17 -292 -17
-94 -49 -154 -138 -191 -283 -15 -58 -18 -110 -17 -305 0 -209 3 -244 22 -314
56 -203 160 -288 349 -287 115 1 178 23 235 81 47 49 75 116 93 223 l6 37 190
0 190 0 -7 -52 c-37 -290 -197 -494 -448 -574 -102 -32 -240 -45 -360 -34
-344 33 -587 287 -642 670 -18 125 -18 400 0 520 47 309 219 537 476 631 141
51 330 58 488 18z m-1730 -27 c289 -88 478 -291 553 -595 26 -107 36 -339 20
-462 -42 -310 -184 -526 -426 -646 -156 -78 -184 -82 -587 -86 l-358 -4 0 911
0 911 363 -3 c339 -4 367 -6 435 -26z"/>
<path d="M1430 2560 l0 -592 148 3 c148 4 148 4 225 42 85 42 132 89 178 179
57 113 80 306 60 504 -18 176 -60 275 -151 357 -79 71 -137 89 -312 95 l-148
4 0 -592z"/>
</g>
</svg>
